<svg width="30" height="30" viewBox="0 0 30 30" fill="none" xmlns="http://www.w3.org/2000/svg">
<path fill-rule="evenodd" clip-rule="evenodd" d="M13.9393 0.43934C14.5251 -0.146447 15.4749 -0.146447 16.0607 0.43934L29.5607 13.9393C30.1464 14.5251 30.1464 15.4749 29.5607 16.0607C28.9749 16.6464 28.0251 16.6464 27.4393 16.0607L27 15.6213V27C27 28.6569 25.6569 30 24 30H6C4.34315 30 3 28.6569 3 27V15.6213L2.56066 16.0607C1.97487 16.6464 1.02513 16.6464 0.43934 16.0607C-0.146447 15.4749 -0.146447 14.5251 0.43934 13.9393L13.9393 0.43934ZM6 12.6213V27H10.5V21C10.5 19.3431 11.8431 18 13.5 18H16.5C18.1569 18 19.5 19.3431 19.5 21V27H24V12.6213L15 3.62132L6 12.6213ZM16.5 27V21H13.5V27H16.5Z" fill="#545F71"/>
</svg>
