<svg width="30" height="30" viewBox="0 0 30 30" fill="none" xmlns="http://www.w3.org/2000/svg">
<path fill-rule="evenodd" clip-rule="evenodd" d="M0 4.73684C0 2.12075 2.01472 0 4.5 0H25.5C27.9853 0 30 2.12075 30 4.73684V17.3684C30 19.9845 27.9853 22.1052 25.5 22.1052H18.6213L11.5607 29.5375C11.1317 29.9891 10.4865 30.1242 9.92597 29.8798C9.36546 29.6354 9 29.0596 9 28.421V22.1052H4.5C2.01472 22.1052 0 19.9845 0 17.3684V4.73684ZM4.5 3.15789C3.67157 3.15789 3 3.86481 3 4.73684V17.3684C3 18.2404 3.67157 18.9473 4.5 18.9473H10.5C11.3284 18.9473 12 19.6543 12 20.5263V24.6091L16.9393 19.4098C17.2206 19.1137 17.6022 18.9473 18 18.9473H25.5C26.3284 18.9473 27 18.2404 27 17.3684V4.73684C27 3.86481 26.3284 3.15789 25.5 3.15789H4.5ZM7.5 11.0526C7.5 10.1806 8.17157 9.47367 9 9.47367H9.015C9.84343 9.47367 10.515 10.1806 10.515 11.0526C10.515 11.9246 9.84343 12.6316 9.015 12.6316H9C8.17157 12.6316 7.5 11.9246 7.5 11.0526ZM13.5 11.0526C13.5 10.1806 14.1716 9.47367 15 9.47367H15.015C15.8434 9.47367 16.515 10.1806 16.515 11.0526C16.515 11.9246 15.8434 12.6316 15.015 12.6316H15C14.1716 12.6316 13.5 11.9246 13.5 11.0526ZM19.5 11.0526C19.5 10.1806 20.1716 9.47367 21 9.47367H21.015C21.8434 9.47367 22.515 10.1806 22.515 11.0526C22.515 11.9246 21.8434 12.6316 21.015 12.6316H21C20.1716 12.6316 19.5 11.9246 19.5 11.0526Z" fill="#545F71"/>
</svg>
