<svg width="30" height="30" viewBox="0 0 30 30" fill="none" xmlns="http://www.w3.org/2000/svg">
<path fill-rule="evenodd" clip-rule="evenodd" d="M15 3.33333C13.4938 3.33333 12.2727 4.82572 12.2727 6.66667C12.2727 8.50762 13.4938 10 15 10C16.5062 10 17.7273 8.50762 17.7273 6.66667C17.7273 4.82572 16.5062 3.33333 15 3.33333ZM9.54545 6.66667C9.54545 2.98477 11.9875 0 15 0C18.0125 0 20.4545 2.98477 20.4545 6.66667C20.4545 10.3486 18.0125 13.3333 15 13.3333C11.9875 13.3333 9.54545 10.3486 9.54545 6.66667ZM5.45455 10C4.70143 10 4.09091 10.7462 4.09091 11.6667C4.09091 12.5871 4.70143 13.3333 5.45455 13.3333C6.20766 13.3333 6.81818 12.5871 6.81818 11.6667C6.81818 10.7462 6.20766 10 5.45455 10ZM1.36364 11.6667C1.36364 8.90524 3.1952 6.66667 5.45455 6.66667C7.71389 6.66667 9.54545 8.90524 9.54545 11.6667C9.54545 14.4281 7.71389 16.6667 5.45455 16.6667C3.1952 16.6667 1.36364 14.4281 1.36364 11.6667ZM24.5455 10C23.7923 10 23.1818 10.7462 23.1818 11.6667C23.1818 12.5871 23.7923 13.3333 24.5455 13.3333C25.2986 13.3333 25.9091 12.5871 25.9091 11.6667C25.9091 10.7462 25.2986 10 24.5455 10ZM20.4545 11.6667C20.4545 8.90524 22.2861 6.66667 24.5455 6.66667C26.8048 6.66667 28.6364 8.90524 28.6364 11.6667C28.6364 14.4281 26.8048 16.6667 24.5455 16.6667C22.2861 16.6667 20.4545 14.4281 20.4545 11.6667ZM15 18.3333C12.7056 18.3333 10.7389 20.0653 9.93359 22.5242C9.68363 23.2874 9.54545 24.122 9.54545 25V26.6667H20.4545V25C20.4545 24.122 20.3164 23.2874 20.0664 22.5242C19.2611 20.0653 17.2944 18.3333 15 18.3333ZM23.1818 26.6667H27.2727V25C27.2727 23.159 26.0517 21.6667 24.5455 21.6667C23.9235 21.6667 23.3505 21.9201 22.891 22.3496C23.0807 23.195 23.1818 24.0841 23.1818 25V26.6667ZM21.7208 19.2961C20.2438 16.7009 17.7855 15 15 15C12.2145 15 9.7562 16.7009 8.27915 19.2961C7.45556 18.6857 6.48858 18.3333 5.45455 18.3333C2.44208 18.3333 0 21.3181 0 25V28.3333C0 29.2538 0.610521 30 1.36364 30H28.6364C29.3895 30 30 29.2538 30 28.3333V25C30 21.3181 27.5579 18.3333 24.5455 18.3333C23.5114 18.3333 22.5444 18.6857 21.7208 19.2961ZM7.10901 22.3496C6.64953 21.9201 6.07646 21.6667 5.45455 21.6667C3.94831 21.6667 2.72727 23.159 2.72727 25V26.6667H6.81818V25C6.81818 24.0841 6.91928 23.195 7.10901 22.3496Z" fill="#545F71"/>
</svg>
