<svg width="50" height="50" viewBox="0 0 50 50" fill="none" xmlns="http://www.w3.org/2000/svg">
<path fill-rule="evenodd" clip-rule="evenodd" d="M0 7.49999C0 3.35786 3.35786 0 7.5 0H32.5C36.6421 0 40 3.35786 40 7.49999V9.99999H42.5C46.6421 9.99999 50 13.3578 50 17.5V32.5C50 36.6421 46.6421 39.9999 42.5 39.9999H40V47.4999C40 48.5111 39.3909 49.4227 38.4567 49.8096C37.5225 50.1966 36.4472 49.9827 35.7322 49.2677L26.4645 39.9999H17.5C16.3431 39.9999 15.2461 39.737 14.2669 39.2685C13.5519 39.9829 12.4771 40.1964 11.5433 39.8096C10.6091 39.4227 10 38.5111 10 37.4999V30H7.5C3.35786 30 0 26.6421 0 22.5V7.49999ZM18.5355 35H27.5C28.163 35 28.7989 35.2633 29.2678 35.7322L35 41.4644V37.4999C35 36.1192 36.1193 35 37.5 35H42.5C43.8807 35 45 33.8807 45 32.5V17.5C45 16.1193 43.8807 15 42.5 15H40V22.5C40 26.6421 36.6421 30 32.5 30H23.5355L18.5355 35ZM35 7.49999C35 6.11928 33.8807 4.99999 32.5 4.99999H7.5C6.11929 4.99999 5 6.11928 5 7.49999V22.5C5 23.8807 6.11929 25 7.5 25H12.5C13.8807 25 15 26.1192 15 27.5V31.4644L20.7322 25.7322C21.2011 25.2634 21.837 25 22.5 25H32.5C33.8807 25 35 23.8807 35 22.5V7.49999Z" fill="#545F71"/>
</svg>
