<svg width="50" height="50" viewBox="0 0 50 50" fill="none" xmlns="http://www.w3.org/2000/svg">
<path fill-rule="evenodd" clip-rule="evenodd" d="M16.718 6.66298C17.1805 2.91479 20.712 0 25 0C29.288 0 32.8195 2.9148 33.282 6.66299C39.876 9.46098 44.4444 15.4976 44.4444 22.5V30.3961C44.4444 31.0802 44.7463 31.7362 45.2838 32.2199L49.1863 35.7322C49.9808 36.4472 50.2184 37.5225 49.7885 38.4567C49.3585 39.3909 48.3457 40 47.2221 40L36.1111 40C36.1111 45.5228 31.1365 50 25 50C18.8635 50 13.8889 45.5228 13.8889 40L2.77785 40C1.65435 40 0.641472 39.3909 0.211526 38.4567C-0.21842 37.5225 0.0192345 36.4472 0.813671 35.7322L4.71625 32.2199C5.25369 31.7362 5.55562 31.0802 5.55562 30.3961V22.5C5.55562 15.4976 10.124 9.46097 16.718 6.66298ZM19.4445 40C19.4445 42.7614 21.9318 45 25 45C28.0682 45 30.5555 42.7614 30.5555 40H19.4445ZM25 5C23.4659 5 22.2222 6.11929 22.2222 7.5V8.35354C22.2222 9.41308 21.4801 10.3575 20.3701 10.7106C14.972 12.4278 11.1112 17.0613 11.1112 22.5V30.3961C11.1112 32.0693 10.4964 33.6855 9.37952 35H40.6205C39.5036 33.6855 38.8888 32.0693 38.8888 30.3961V22.5C38.8888 17.0613 35.028 12.4278 29.6299 10.7106C28.5199 10.3575 27.7778 9.41308 27.7778 8.35354V7.5C27.7778 6.11929 26.5341 5 25 5Z" fill="#545F71"/>
</svg>
