<svg width="50" height="50" viewBox="0 0 50 50" fill="none" xmlns="http://www.w3.org/2000/svg">
<path fill-rule="evenodd" clip-rule="evenodd" d="M25 5C13.9543 5 5 13.9543 5 25C5 29.1992 6.29413 33.0961 8.50531 36.3137C13.4853 33.871 19.0855 32.5 25 32.5C30.9145 32.5 36.5147 33.871 41.4947 36.3137C43.7059 33.0961 45 29.1992 45 25C45 13.9543 36.0457 5 25 5ZM44.1356 41.089C47.7952 36.741 50 31.128 50 25C50 11.1929 38.8071 0 25 0C11.1929 0 0 11.1929 0 25C0 31.128 2.20481 36.741 5.86443 41.0891C5.88422 41.1134 5.9044 41.1373 5.92496 41.1607C10.5107 46.5681 17.3546 50 25 50C32.6454 50 39.4892 46.5681 44.075 41.1608C44.0956 41.1373 44.1158 41.1134 44.1356 41.089ZM37.9966 40.2021C34.0185 38.4644 29.6243 37.5 25 37.5C20.3757 37.5 15.9815 38.4644 12.0034 40.2021C15.499 43.1934 20.0385 45 25 45C29.9615 45 34.501 43.1934 37.9966 40.2021ZM25 15C22.2386 15 20 17.2386 20 20C20 22.7614 22.2386 25 25 25C27.7614 25 30 22.7614 30 20C30 17.2386 27.7614 15 25 15ZM15 20C15 14.4772 19.4772 10 25 10C30.5228 10 35 14.4772 35 20C35 25.5228 30.5228 30 25 30C19.4772 30 15 25.5228 15 20Z" fill="#545F71"/>
</svg>
